<svg width="178.616699" height="36.559998" viewBox="0 0 178.617 36.56" fill="none" xmlns="http://www.w3.org/2000/svg" xmlns:xlink="http://www.w3.org/1999/xlink">
	<desc>
			Created with Pixso.
	</desc>
	<defs>
		<filter id="filter_2_47_dd" x="0.000000" y="0.000000" width="178.616699" height="36.559998" filterUnits="userSpaceOnUse" color-interpolation-filters="sRGB">
			<feFlood flood-opacity="0" result="BackgroundImageFix"/>
			<feColorMatrix in="SourceAlpha" type="matrix" values="0 0 0 0 0 0 0 0 0 0 0 0 0 0 0 0 0 0 127 0" result="hardAlpha"/>
			<feOffset dx="0" dy="4"/>
			<feGaussianBlur stdDeviation="1.33333"/>
			<feComposite in2="hardAlpha" operator="out" k2="-1" k3="1"/>
			<feColorMatrix type="matrix" values="0 0 0 0 0 0 0 0 0 0 0 0 0 0 0 0 0 0 0.25 0"/>
			<feBlend mode="normal" in2="BackgroundImageFix" result="effect_dropShadow_1"/>
			<feBlend mode="normal" in="SourceGraphic" in2="effect_dropShadow_1" result="shape"/>
		</filter>
	</defs>
	<g filter="url(#filter_2_47_dd)">
		<path id="Positivus" d="M4 28L4 0L15.12 0Q17.68 0 19.68 1.03Q20.93 1.65 21.84 2.6Q22.4 3.19 22.83 3.91Q24 5.76 24 8.35L24 8.88Q24 11.36 22.9 13.19Q22.85 13.27 22.79 13.36Q22.26 14.22 21.55 14.9Q20.72 15.69 19.64 16.24Q17.64 17.24 15.12 17.24L8.31 17.24L8.31 28L4 28ZM75.37 5.59Q74.64 5.59 74.04 5.31L74.04 5.31Q73.66 5.13 73.33 4.84C72.8 4.3 72.53 3.62 72.53 2.79C72.53 1.97 72.8 1.3 73.33 0.79Q73.7 0.44 74.14 0.25L74.14 0.25Q74.7 0 75.37 0Q76.19 0 76.81 0.34Q77.14 0.52 77.41 0.79C77.95 1.3 78.21 1.97 78.21 2.79C78.21 3.62 77.95 4.3 77.41 4.84Q77.18 5.06 76.91 5.21L76.91 5.21Q76.25 5.59 75.37 5.59ZM103.93 5.59Q103.2 5.59 102.6 5.31L102.6 5.31Q102.22 5.13 101.89 4.84C101.36 4.3 101.09 3.62 101.09 2.79C101.09 1.97 101.36 1.3 101.89 0.79Q102.26 0.44 102.7 0.25L102.7 0.25Q103.26 0 103.93 0C104.76 0 105.44 0.26 105.97 0.79C106.5 1.3 106.77 1.97 106.77 2.79C106.77 3.62 106.5 4.3 105.97 4.84C105.44 5.34 104.76 5.59 103.93 5.59ZM90.93 28C89.73 28 88.77 27.64 88.05 26.92C87.36 26.2 87.01 25.24 87.01 24.04L87.01 11.76L81.57 11.76L81.57 8.28L87.01 8.28L87.01 1.76L91.13 1.76L91.13 8.28L97.01 8.28L97.01 11.76L91.13 11.76L91.13 23.32C91.13 24.12 91.5 24.52 92.25 24.52L96.37 24.52L96.37 28L90.93 28ZM8.31 13.32L14.68 13.32Q16.77 13.32 18.08 12.31L18.08 12.3Q18.2 12.21 18.31 12.12Q18.73 11.75 19.01 11.31Q19.68 10.29 19.68 8.84L19.68 8.43Q19.68 6.9 18.96 5.85L18.96 5.85Q18.69 5.45 18.31 5.12Q18.2 5.02 18.08 4.93L18.08 4.92Q16.77 3.91 14.68 3.91L8.31 3.91L8.31 13.32ZM36.91 28.56C34.94 28.56 33.18 28.16 31.63 27.36C30.11 26.53 28.91 25.36 28.03 23.84C27.15 22.32 26.71 20.52 26.71 18.44L26.71 17.84C26.71 15.76 27.15 13.97 28.03 12.48Q28.76 11.22 29.78 10.28L29.78 10.28Q30.61 9.51 31.63 8.96C33.18 8.13 34.94 7.71 36.91 7.71C38.88 7.71 40.64 8.13 42.19 8.96Q43.34 9.57 44.24 10.44Q45.16 11.32 45.83 12.48C46.71 13.97 47.15 15.76 47.15 17.84L47.15 18.44C47.15 20.52 46.71 22.32 45.83 23.84Q45.16 24.99 44.24 25.87Q43.34 26.74 42.19 27.36C40.64 28.16 38.88 28.56 36.91 28.56ZM60.36 28.56C57.85 28.56 55.77 28 54.12 26.88C52.47 25.76 51.45 24.06 51.08 21.8L54.92 20.88C55.13 21.97 55.49 22.84 56 23.48C56.51 24.12 57.13 24.57 57.88 24.84C58.65 25.1 59.48 25.24 60.36 25.24C61.67 25.24 62.67 24.98 63.36 24.48C64.08 23.97 64.44 23.32 64.44 22.52C64.44 21.72 64.11 21.13 63.44 20.76C62.77 20.38 61.79 20.08 60.48 19.84L59.12 19.6C57.79 19.36 56.57 19.01 55.48 18.56C54.39 18.1 53.52 17.48 52.88 16.68Q52.81 16.58 52.74 16.49Q51.92 15.33 51.92 13.6C51.92 11.73 52.61 10.29 54 9.28Q56.08 7.71 59.52 7.71Q62.84 7.71 64.96 9.23Q66.01 9.95 66.7 10.92Q67.43 11.96 67.76 13.28L63.92 14.36C63.68 13.16 63.17 12.32 62.4 11.84Q61.24 11.08 59.52 11.08C58.4 11.08 57.52 11.29 56.88 11.72C56.24 12.12 55.92 12.69 55.92 13.44C55.92 14.24 56.23 14.82 56.84 15.2C57.48 15.57 58.33 15.85 59.4 16.04L60.8 16.28C62.21 16.52 63.51 16.85 64.68 17.28C65.85 17.7 66.77 18.32 67.44 19.12C68.13 19.92 68.48 20.98 68.48 22.32C68.48 24.29 67.75 25.82 66.28 26.92C64.81 28.01 62.84 28.56 60.36 28.56ZM166.49 28.56C163.99 28.56 161.91 28 160.25 26.88Q159.55 26.4 159.01 25.79Q157.61 24.24 157.21 21.8L161.05 20.88C161.27 21.97 161.63 22.84 162.13 23.48C162.64 24.12 163.27 24.57 164.01 24.84C164.79 25.1 165.61 25.24 166.49 25.24C167.8 25.24 168.8 24.98 169.49 24.48Q170.15 24.01 170.41 23.38Q170.57 22.98 170.57 22.52C170.57 21.72 170.24 21.13 169.57 20.76C168.91 20.38 167.92 20.08 166.61 19.84L165.25 19.6C163.92 19.36 162.71 19.01 161.61 18.56C160.52 18.1 159.65 17.48 159.01 16.68C158.37 15.88 158.05 14.85 158.05 13.6C158.05 11.73 158.75 10.29 160.13 9.28C161.52 8.23 163.36 7.71 165.65 7.71C167.87 7.71 169.68 8.22 171.09 9.23Q172.14 9.95 172.83 10.92Q173.56 11.96 173.89 13.28L170.05 14.36C169.81 13.16 169.31 12.32 168.53 11.84C167.76 11.33 166.8 11.08 165.65 11.08C164.53 11.08 163.65 11.29 163.01 11.72C162.37 12.12 162.05 12.69 162.05 13.44C162.05 14.24 162.36 14.82 162.97 15.2C163.61 15.57 164.47 15.85 165.53 16.04L166.93 16.28C168.35 16.52 169.64 16.85 170.81 17.28C171.99 17.7 172.91 18.32 173.57 19.12C174.27 19.92 174.61 20.98 174.61 22.32C174.61 24.29 173.88 25.82 172.41 26.92C170.95 28.01 168.97 28.56 166.49 28.56ZM73.29 28L73.29 8.28L77.41 8.28L77.41 28L73.29 28ZM101.85 28L101.85 8.28L105.97 8.28L105.97 28L101.85 28ZM116.64 28L110 8.28L114.36 8.28L119.6 24.96L120.24 24.96L125.48 8.28L129.84 8.28L123.2 28L116.64 28ZM141.4 28.36C139.91 28.36 138.58 28.02 137.4 27.36C136.23 26.69 135.31 25.74 134.64 24.52C133.98 23.29 133.64 21.82 133.64 20.12L133.64 8.28L137.76 8.28L137.76 19.84Q137.76 22.39 139.04 23.63L139.04 23.64C139.89 24.44 141.08 24.84 142.6 24.84Q144.26 24.84 145.49 24.1L145.49 24.1Q146.12 23.73 146.64 23.16C147.68 22.01 148.2 20.37 148.2 18.24L148.2 8.28L152.32 8.28L152.32 28L148.28 28L148.28 25.04L147.64 25.04C147.27 25.84 146.6 26.6 145.64 27.32C144.68 28.01 143.27 28.36 141.4 28.36ZM36.91 24.88Q38.81 24.88 40.21 24.03Q40.81 23.67 41.31 23.16Q41.54 22.92 41.74 22.66Q43.03 20.98 43.03 18.32L43.03 17.95C43.03 15.9 42.47 14.3 41.35 13.16C40.23 11.98 38.75 11.4 36.91 11.4C35.12 11.4 33.66 11.98 32.51 13.16Q32.34 13.33 32.18 13.53Q30.83 15.19 30.83 17.95L30.83 18.32Q30.83 21.06 32.16 22.75L32.16 22.75Q32.33 22.96 32.51 23.16C33.66 24.3 35.12 24.88 36.91 24.88Z" fill="#000000" fill-opacity="1.000000" fill-rule="evenodd"/>
	</g>
</svg>
